<svg width="16" height="16" xmlns="http://www.w3.org/2000/svg"><g fill="none" fill-rule="evenodd"><path d="M4.107 11.429H.78a8.01 8.01 0 004.461 4.065 10.18 10.18 0 01-.334-.777c-.352-.944-.62-2.062-.799-3.288zM3.857 8c0-.79.046-1.55.114-2.286H.336A7.989 7.989 0 000 8c0 .794.12 1.561.336 2.286h3.638A24.483 24.483 0 013.857 8zm6.294-4.936c-.081-.326-.174-.63-.27-.919C9.59 1.426 9.258.85 8.92.495 8.574.133 8.27 0 8 0s-.574.133-.919.495c-.308.324-.618.83-.89 1.465-.266.745-.49 1.622-.647 2.611h4.904c-.083-.53-.18-1.04-.297-1.507zM.78 4.57h3.328c.096-.651.209-1.28.355-1.857.213-.83.473-1.566.78-2.208A8.005 8.005 0 00.782 4.57zm11.112.001h3.328A8.01 8.01 0 0010.76.506c.118.247.23.503.334.777.352.943.62 2.062.799 3.288zm-.357 8.716a12.142 12.142 0 01-.78 2.207 8.017 8.017 0 004.465-4.065h-3.328c-.098.651-.21 1.28-.357 1.858zm4.128-7.573h-3.638c.069.736.117 1.494.117 2.286 0 .79-.046 1.55-.114 2.286h3.635A7.989 7.989 0 0016 8c0-.794-.12-1.561-.336-2.286zm-10.253 0A22.49 22.49 0 005.286 8c0 .794.045 1.555.119 2.286h5.184c.074-.733.125-1.49.125-2.286 0-.794-.045-1.555-.119-2.286H5.411zm.438 7.222c.081.326.173.63.27.918.29.719.623 1.297.962 1.651.345.362.648.495.919.495.27 0 .574-.133.92-.495.306-.323.615-.826.887-1.456.267-.747.492-1.627.649-2.62H5.552c.083.53.18 1.04.297 1.507z" fill="#767676" fill-rule="nonzero"/><path d="M0 0h16v16H0z"/></g></svg>