<svg width="16" height="16" xmlns="http://www.w3.org/2000/svg"><g fill="none" fill-rule="evenodd"><path d="M1.034 11.669l-.567.566a.8.8 0 000 1.131l2.167 2.165a.8.8 0 001.13 0l.567-.566a.773.773 0 00.11-.16L1.2 11.558a.773.773 0 00-.166.11zM15.53 2.634L13.366.469a.8.8 0 00-1.13 0l-.567.565a.77.77 0 00-.11.16L14.8 4.442a.771.771 0 00.16-.11l.566-.567a.8.8 0 00.005-1.131zM8.96.869a.8.8 0 00-1.131 0l-.56.571a.8.8 0 000 1.131l2.517 2.512-4.703 4.703L2.56 7.269a.8.8 0 00-1.131 0l-.56.571a.8.8 0 000 1.131l6.171 6.16a.8.8 0 001.131 0l.56-.571a.8.8 0 000-1.131l-2.517-2.512 4.703-4.703 2.523 2.517a.8.8 0 001.131 0l.56-.571a.8.8 0 000-1.131L8.96.869z" fill="#767676" fill-rule="nonzero"/><path d="M0 0h16v16H0z"/></g></svg>