<svg width="16" height="16" xmlns="http://www.w3.org/2000/svg"><g fill="none" fill-rule="evenodd"><path d="M13.6 12.8h-4v-1.589a5.562 5.562 0 003.062-1.555.8.8 0 00.008-1.12l-1.057-1.091a.802.802 0 00-1.149 1.12l.454.469a3.98 3.98 0 01-5.785-5.101l2.201 2.201a.8.8 0 001.132 0l.868-.868a.8.8 0 000-1.132L5.466.266a.8.8 0 00-1.132 0l-.868.868a.8.8 0 000 1.132l.48.48A5.557 5.557 0 008 11.229V12.8H4a.8.8 0 00-.8.8v1.6a.8.8 0 00.8.8h9.6a.8.8 0 00.8-.8v-1.6a.8.8 0 00-.8-.8z" fill="#767676" fill-rule="nonzero"/><path d="M0 0h16v16H0z"/></g></svg>